<svg xmlns="http://www.w3.org/2000/svg" viewBox="0 0 64 64">
  <defs>
    <radialGradient id="bg" cx="50%" cy="40%" r="75%">
      <stop offset="0%" stop-color="#f4ecd6"/>
      <stop offset="100%" stop-color="#ecdfc2"/>
    </radialGradient>
  </defs>
  <rect width="64" height="64" fill="url(#bg)"/>
  <g transform="translate(32,33) scale(1.05)">
    <ellipse cx="0" cy="20.5" rx="13" ry="3" fill="#3b2a1c" opacity="0.10"/>
    <path d="M0 -16 C 10 -16 16 -8 16 2 C 16 12 8 18 0 18 C -8 18 -16 12 -16 2 C -16 -8 -10 -16 0 -16 Z" fill="#c0432a"/>
    <path d="M-6 -8 C -9 -4 -9 4 -6 9" stroke="#ffffff" stroke-opacity="0.22" stroke-width="2.4" fill="none" stroke-linecap="round"/>
    <path d="M0 -16 C 2 -22 6 -24 10 -22 C 8 -18 4 -16 0 -16 Z" fill="#6b7a2e"/>
    <path d="M-3 -14 Q -1 -10 1 -14" stroke="#3b2a1c" stroke-width="1.1" fill="none" stroke-linecap="round"/>
  </g>
</svg>
